<svg width="726" height="317" viewBox="0 0 726 317" fill="none" xmlns="http://www.w3.org/2000/svg">
<path d="M0 63.1547C0 41.8691 0 21.0835 0 0.0904541C27.8233 0.0904541 55.2384 0.0904541 82.9512 0.0904541C82.9512 105.392 82.9512 210.599 82.9512 316.117C55.4326 316.117 27.9032 316.117 0 316.117C0 231.86 0 147.757 0 63.1547Z" fill="black" style="fill:black;fill-opacity:1;"/>
<path d="M188.67 316.208C175.525 316.208 162.879 316.208 149.951 316.208C149.951 210.778 149.951 105.543 149.951 0C177.478 0 205 0 232.717 0C232.717 105.361 232.717 210.576 232.717 316.208C218.066 316.208 203.618 316.208 188.67 316.208Z" fill="black" style="fill:black;fill-opacity:1;"/>
<path d="M299.717 142.11C299.717 94.4823 299.717 47.3548 299.717 0.0275879C327.549 0.0275879 354.964 0.0275879 382.86 0.0275879C382.86 38.7471 382.86 77.3188 382.86 116.105C410.897 116.105 438.455 116.105 466.35 116.105C466.35 77.4068 466.35 38.9654 466.35 0.179993C494.223 0.179993 521.76 0.179993 549.506 0.179993C549.506 105.489 549.506 210.732 549.506 316.18C521.877 316.18 494.456 316.18 466.523 316.18C466.523 277.495 466.523 238.932 466.523 200.114C438.571 200.114 411.128 200.114 383.204 200.114C383.204 238.574 383.204 277.127 383.204 316.035C355.195 316.035 327.665 316.035 299.717 316.035C299.717 258.197 299.717 200.404 299.717 142.11Z" fill="black" style="fill:black;fill-opacity:1;"/>
<path d="M628.75 37.75H660.125C665.125 37.75 669.458 38.6667 673.125 40.5C676.792 42.3333 679.583 44.9167 681.5 48.25C683.417 51.5 684.375 55.375 684.375 59.875C684.375 64.375 683.375 68.25 681.375 71.5C679.375 74.6667 676.5 77.0833 672.75 78.75C669.083 80.4167 664.708 81.25 659.625 81.25H639V67.875H656.5C658.333 67.875 659.917 67.5833 661.25 67C662.583 66.4167 663.542 65.5417 664.125 64.375C664.792 63.125 665.125 61.625 665.125 59.875C665.125 58.0417 664.792 56.5 664.125 55.25C663.542 54 662.583 53.0833 661.25 52.5C660 51.8333 658.458 51.4583 656.625 51.375H647.25V103H628.75V37.75ZM686 103H665.75L653 73.25H671.875L686 103ZM655 142C642.25 142 630.458 138.792 619.625 132.375C608.875 125.958 600.292 117.375 593.875 106.625C587.458 95.7917 584.25 84 584.25 71.25C584.25 58.4167 587.458 46.5833 593.875 35.75C600.292 24.9167 608.875 16.3333 619.625 10C630.458 3.66667 642.25 0.5 655 0.5C667.833 0.5 679.667 3.66667 690.5 10C701.333 16.3333 709.917 24.9167 716.25 35.75C722.583 46.5833 725.75 58.4167 725.75 71.25C725.75 84.0833 722.583 95.875 716.25 106.625C709.917 117.375 701.333 125.958 690.5 132.375C679.667 138.792 667.833 142 655 142ZM655 122.125C664.25 122.125 672.792 119.875 680.625 115.375C688.458 110.875 694.667 104.708 699.25 96.875C703.833 89.0417 706.125 80.5 706.125 71.25C706.125 62 703.833 53.4583 699.25 45.625C694.667 37.7917 688.458 31.5833 680.625 27C672.792 22.4167 664.25 20.125 655 20.125C645.667 20.125 637.083 22.4167 629.25 27C621.5 31.5833 615.333 37.7917 610.75 45.625C606.167 53.4583 603.875 62 603.875 71.25C603.875 80.5 606.167 89.0417 610.75 96.875C615.333 104.708 621.5 110.875 629.25 115.375C637.083 119.875 645.667 122.125 655 122.125Z" fill="black" style="fill:black;fill-opacity:1;"/>
</svg>
